<svg xmlns="http://www.w3.org/2000/svg" viewBox="0 0 64 64"><defs><style>.cls-1{fill:#dedef2;}.cls-2{fill:#5b97c4;}.cls-3{fill:#8cbce7;}.cls-4{fill:silver;}.cls-5{fill:#d94747;}.cls-6{fill:#f57070;}.cls-7{fill:#f79341;}.cls-8{fill:#ffb248;}.cls-9{fill:#2b2b4c;}</style></defs><title>Eye Insurance</title><g id="Eye_Insurance" data-name="Eye Insurance"><path class="cls-1" d="M32,11A28.34,28.34,0,0,0,5,31,28.34,28.34,0,0,0,32,51a27.92,27.92,0,0,0,11.49-2.46,12,12,0,0,1-2.17-4.66A11.81,11.81,0,0,1,41,41.14V32.56l3.5-1,2.5-.71L50,30l1.13.32,6.42,1.83.76.22.2.05c.18-.47.34-.94.49-1.42A28.34,28.34,0,0,0,32,11Z"/><path class="cls-2" d="M32,11A28.34,28.34,0,0,0,5,31,28.34,28.34,0,0,0,32,51a27.92,27.92,0,0,0,11.49-2.46,12,12,0,0,1-2.17-4.66A11.81,11.81,0,0,1,41,41.14V32.56l3.5-1,2.5-.71L50,30l1.13.32,6.42,1.83.76.22.2.05c.18-.47.34-.94.49-1.42A28.34,28.34,0,0,0,32,11Z"/><path class="cls-3" d="M32,14C19.33,14,8.6,21.15,5,31c3.6,9.85,14.33,17,27,17a32.22,32.22,0,0,0,11.49-2.09,9.46,9.46,0,0,1-.92-1.19A9.09,9.09,0,0,1,41.32,42,8.62,8.62,0,0,1,41,39.62V32.33l3.5-.85,2.5-.61,3-.72,1.13.27L57.55,32l.76.18.2.05c.18-.4.34-.8.49-1.21C55.4,21.15,44.67,14,32,14Z"/><path class="cls-1" d="M59,31c-.21.46-.43.92-.69,1.37l-.76-.22-6.42-1.83L50,30l-3,.85-2.5.71-3.5,1v8.58a11.81,11.81,0,0,0,.32,2.74A38.44,38.44,0,0,1,32,45C19.33,45,8.6,39.11,5,31c2.8-6.31,9.91-11.27,18.9-13.16a39.47,39.47,0,0,1,16.2,0C49.09,19.73,56.2,24.69,59,31Z"/><path class="cls-4" d="M59,31c-2.8-6.31-9.91-11.27-18.9-13.16a39.47,39.47,0,0,0-16.2,0C14.91,19.73,7.8,24.69,5,31c.21.46.43.92.69,1.37h0C9,38.19,16,42.67,24.67,44.31l.28.06c.55.1,1.12.18,1.69.26l.63.09c.52.06,1.05.1,1.58.14l.76.07C30.4,45,31.2,45,32,45s1.6,0,2.39-.07l.76-.07c.53,0,1.06-.08,1.58-.14l.63-.09c.57-.08,1.14-.16,1.69-.26l.28-.06C48,42.67,55,38.19,58.31,32.37h0C58.57,31.92,58.79,31.46,59,31Z"/><path class="cls-1" d="M58,31c-2.7-4.51-9.54-8-18.2-9.4a51,51,0,0,0-15.6,0C15.54,23,8.7,26.49,6,31a9.9,9.9,0,0,0,.66,1h0c3.14,4.16,9.91,7.35,18.27,8.53l.27,0c.53.07,1.08.13,1.62.18l.61.07,1.53.1.73.05c.76,0,1.53,0,2.3,0s1.54,0,2.3,0L35,40.9l1.53-.1.61-.07c.54,0,1.09-.11,1.62-.18l.27,0c8.36-1.18,15.13-4.37,18.27-8.53h0A9.9,9.9,0,0,0,58,31Z"/><path class="cls-5" d="M45,28a12.71,12.71,0,0,1-.5,3.56l-3.5,1v4.81A13,13,0,1,1,23.9,17.84,38.61,38.61,0,0,1,32,17a40.24,40.24,0,0,1,4.29.23,36,36,0,0,1,3.81.61A12.93,12.93,0,0,1,45,28Z"/><path class="cls-6" d="M41,26.5a11.5,11.5,0,0,1-21,6.43A13,13,0,0,1,23.9,17.84,38.61,38.61,0,0,1,32,17a40.24,40.24,0,0,1,4.29.23A11.43,11.43,0,0,1,41,26.5Z"/><path class="cls-7" d="M37.7,29.85a5.08,5.08,0,0,0,.2-.79l0-.18A6.4,6.4,0,0,0,38,28a6,6,0,0,0-6-6,6.4,6.4,0,0,0-.88.07l-.18,0a5.08,5.08,0,0,0-.79.2h-.06a6,6,0,0,0-3.77,3.77h0a.13.13,0,0,0,0,.06,5.08,5.08,0,0,0-.2.79l0,.18A6.4,6.4,0,0,0,26,28a6,6,0,0,0,6,6,6.4,6.4,0,0,0,.88-.07l.18,0a5.08,5.08,0,0,0,.79-.2h.06a6,6,0,0,0,3.77-3.77h0A.13.13,0,0,0,37.7,29.85Z"/><path class="cls-8" d="M33.83,27.58a3.43,3.43,0,0,0,.11-.46s0-.07,0-.11a4.38,4.38,0,0,0,0-.51A3.5,3.5,0,0,0,30.5,23,4.38,4.38,0,0,0,30,23l-.11,0a3.43,3.43,0,0,0-.46.11h0a3.52,3.52,0,0,0-2.21,2.21h0a0,0,0,0,1,0,0,3.43,3.43,0,0,0-.11.46s0,.07,0,.11a4.38,4.38,0,0,0,0,.51A3.5,3.5,0,0,0,30.5,30,4.38,4.38,0,0,0,31,30l.11,0a3.43,3.43,0,0,0,.46-.11h0a3.52,3.52,0,0,0,2.21-2.21h0A0,0,0,0,1,33.83,27.58Z"/><path class="cls-1" d="M25,23.75A2.75,2.75,0,1,0,27.75,21,2.73,2.73,0,0,0,25,23.75Z"/><path class="cls-7" d="M59,32.56v8.58A12.34,12.34,0,0,1,50,53a12.43,12.43,0,0,1-4.34-2.23,12.05,12.05,0,0,1-2.17-2.23,12,12,0,0,1-2.17-4.66A11.81,11.81,0,0,1,41,41.14V32.56l3.5-1,2.5-.71L50,30l1.13.32,6.42,1.83.76.22.2.05Z"/><path class="cls-8" d="M56,31.71v6.43A12.34,12.34,0,0,1,47,50a12.39,12.39,0,0,1-3.77-1.8A12.31,12.31,0,0,1,41,41.14V32.56L50,30Z"/><path class="cls-9" d="M32,52A29.21,29.21,0,0,1,4,31.3a1.22,1.22,0,0,1,0-.6A29.48,29.48,0,0,1,16.83,14.28a1,1,0,1,1,1,1.7A27.51,27.51,0,0,0,6.05,31,27.19,27.19,0,0,0,32,50a26.86,26.86,0,0,0,10-1.9c-.1-.16-.19-.32-.28-.48A13.51,13.51,0,0,1,40,41.14V32.56a1,1,0,0,1,.73-1l9-2.56a1,1,0,0,1,.54,0l7.61,2.17A1.72,1.72,0,0,0,58,31,27.19,27.19,0,0,0,32,12a26.88,26.88,0,0,0-10.73,2.21,1,1,0,1,1-.8-1.84A29.23,29.23,0,0,1,60,30.7a1,1,0,0,1,0,.6c-.15.5-.32,1-.51,1.48a1,1,0,0,1-1.17.61l-1-.28L50,31l-8,2.27v7.83a11.11,11.11,0,0,0,.29,2.51,11,11,0,0,0,1.15,3,11.38,11.38,0,0,0,.85,1.29,1,1,0,0,1,.17.85,1,1,0,0,1-.56.66A28.79,28.79,0,0,1,32,52Z"/><path class="cls-9" d="M32,52A29.21,29.21,0,0,1,4,31.3a1.22,1.22,0,0,1,0-.6A29.48,29.48,0,0,1,16.83,14.28a1,1,0,1,1,1,1.7A27.51,27.51,0,0,0,6.05,31,27.19,27.19,0,0,0,32,50a26.86,26.86,0,0,0,10-1.9c-.1-.16-.19-.32-.28-.48A13.51,13.51,0,0,1,40,41.14V32.56a1,1,0,0,1,.73-1l9-2.56a1,1,0,0,1,.54,0l7.61,2.17A1.72,1.72,0,0,0,58,31,27.19,27.19,0,0,0,32,12a26.88,26.88,0,0,0-10.73,2.21,1,1,0,1,1-.8-1.84A29.23,29.23,0,0,1,60,30.7a1,1,0,0,1,0,.6c-.15.5-.32,1-.51,1.48a1,1,0,0,1-1.17.61l-1-.28L50,31l-8,2.27v7.83a11.11,11.11,0,0,0,.29,2.51,11,11,0,0,0,1.15,3,11.38,11.38,0,0,0,.85,1.29,1,1,0,0,1,.17.85,1,1,0,0,1-.56.66A28.79,28.79,0,0,1,32,52Z"/><path class="cls-9" d="M32,46c-.36,0-.71,0-1.06,0a1,1,0,0,1,.12-2c.31,0,.63,0,.94,0a37.62,37.62,0,0,0,8.15-.87,13.23,13.23,0,0,1-.15-2V32.56a1,1,0,0,1,.73-1l9-2.56a1,1,0,0,1,.54,0l7.54,2.14L57.9,31c-2.81-5.86-9.5-10.39-18-12.18a38.48,38.48,0,0,0-15.78,0C15.6,20.61,8.91,25.14,6.1,31c3.14,6.52,11.34,11.48,21.06,12.7A1,1,0,0,1,28,44.82a1,1,0,0,1-1.11.86C16.14,44.33,7.4,38.86,4.09,31.41a1,1,0,0,1,0-.82C7,24,14.36,18.82,23.69,16.86a40.81,40.81,0,0,1,16.62,0c9.33,2,16.66,7.1,19.6,13.73a1,1,0,0,1,0,.83,15.4,15.4,0,0,1-.74,1.45,1,1,0,0,1-1.14.46L50,31l-8,2.27v7.83a11.11,11.11,0,0,0,.29,2.51,1,1,0,0,1-.73,1.2A39.6,39.6,0,0,1,32,46Z"/><path class="cls-9" d="M32,46c-.36,0-.71,0-1.06,0a1,1,0,0,1,.12-2c.31,0,.63,0,.94,0a37.62,37.62,0,0,0,8.15-.87,13.23,13.23,0,0,1-.15-2V32.56a1,1,0,0,1,.73-1l9-2.56a1,1,0,0,1,.54,0l7.54,2.14L57.9,31c-2.81-5.86-9.5-10.39-18-12.18a38.48,38.48,0,0,0-15.78,0C15.6,20.61,8.91,25.14,6.1,31c3.14,6.52,11.34,11.48,21.06,12.7A1,1,0,0,1,28,44.82a1,1,0,0,1-1.11.86C16.14,44.33,7.4,38.86,4.09,31.41a1,1,0,0,1,0-.82C7,24,14.36,18.82,23.69,16.86a40.81,40.81,0,0,1,16.62,0c9.33,2,16.66,7.1,19.6,13.73a1,1,0,0,1,0,.83,15.4,15.4,0,0,1-.74,1.45,1,1,0,0,1-1.14.46L50,31l-8,2.27v7.83a11.11,11.11,0,0,0,.29,2.51,1,1,0,0,1-.73,1.2A39.6,39.6,0,0,1,32,46Z"/><path class="cls-9" d="M32,42a14,14,0,0,1-12.45-7.59,1,1,0,0,1,1.78-.92A12,12,0,0,0,40,36.94V32.56a1,1,0,0,1,.73-1l3-.85a12,12,0,0,0-4-12,38.73,38.73,0,0,0-15.32,0A11.89,11.89,0,0,0,20,28a12,12,0,0,0,.17,2,1,1,0,1,1-2,.34A15.11,15.11,0,0,1,18,28a13.86,13.86,0,0,1,5.28-10.94.93.93,0,0,1,.41-.2,40.81,40.81,0,0,1,16.62,0,.93.93,0,0,1,.41.2A13.86,13.86,0,0,1,46,28a13.65,13.65,0,0,1-.54,3.84,1,1,0,0,1-.69.68L42,33.31v4.06a1,1,0,0,1-.31.72A13.88,13.88,0,0,1,32,42Z"/><path class="cls-9" d="M32,35a7,7,0,0,1-7-7,7.08,7.08,0,0,1,.36-2.23,1,1,0,0,1,1.48-.53,1.72,1.72,0,0,0,.91.26,1.76,1.76,0,0,0,1.75-1.75,1.72,1.72,0,0,0-.26-.91,1,1,0,0,1-.09-.87,1,1,0,0,1,.62-.61,7,7,0,0,1,6.51,1.12A1,1,0,0,1,35,24a5,5,0,0,0-3.61-1,3.51,3.51,0,0,1,.07.72,3.75,3.75,0,0,1-3.75,3.75,3.51,3.51,0,0,1-.72-.07A5.44,5.44,0,0,0,27,28a5,5,0,0,0,10,0,4.87,4.87,0,0,0-.42-2,1,1,0,1,1,1.84-.8A7,7,0,0,1,32,35Z"/><path class="cls-9" d="M27.75,27.5A3.75,3.75,0,0,1,24,23.75,3.75,3.75,0,0,1,27.75,20a3.77,3.77,0,0,1,3.75,3.75A3.75,3.75,0,0,1,27.75,27.5Zm0-5.5A1.76,1.76,0,0,0,26,23.75a1.74,1.74,0,0,0,.83,1.49,1.78,1.78,0,0,0,.92.26,1.76,1.76,0,0,0,1.75-1.75A1.76,1.76,0,0,0,27.75,22Z"/><path class="cls-9" d="M49,45a1,1,0,0,1-.71-.29l-2.5-2.5a1,1,0,0,1,1.42-1.42L49,42.59l4.29-4.3a1,1,0,0,1,1.42,1.42l-5,5A1,1,0,0,1,49,45Z"/><path class="cls-9" d="M50,54a.84.84,0,0,1-.27,0A13.17,13.17,0,0,1,45,51.55a13.61,13.61,0,0,1-3.35-3.93A13.51,13.51,0,0,1,40,41.14V32.56a1,1,0,0,1,.73-1l9-2.56a1,1,0,0,1,.54,0l9,2.56a1,1,0,0,1,.73,1v8.58q0,.47,0,.93a1,1,0,0,1-2-.14c0-.27,0-.52,0-.79V33.32L50,31l-8,2.27v7.83a11.11,11.11,0,0,0,.29,2.51,11,11,0,0,0,1.15,3A11.4,11.4,0,0,0,50,52a11.43,11.43,0,0,0,7.16-6.56,1,1,0,0,1,1.86.76A13.46,13.46,0,0,1,50.27,54,.84.84,0,0,1,50,54Z"/></g></svg>